<svg xmlns="http://www.w3.org/2000/svg" xmlns:xlink="http://www.w3.org/1999/xlink" viewBox="0 0 806.04 907.45"><defs><style>.cls-1{fill:url(#linear-gradient);}.cls-2{fill:#333;}.cls-3{fill:url(#Sky);}</style><linearGradient id="linear-gradient" x1="50" y1="453.09" x2="756" y2="453.09" gradientUnits="userSpaceOnUse"><stop offset="0" stop-color="#fff"/><stop offset="0" stop-color="#f6fff6"/><stop offset="0.01" stop-color="#c9ffc8"/><stop offset="0.03" stop-color="#9eff9d"/><stop offset="0.04" stop-color="#79ff77"/><stop offset="0.05" stop-color="#59ff57"/><stop offset="0.07" stop-color="#3eff3b"/><stop offset="0.09" stop-color="#29ff25"/><stop offset="0.11" stop-color="#18ff14"/><stop offset="0.13" stop-color="#0dff09"/><stop offset="0.17" stop-color="#06ff02"/><stop offset="0.27" stop-color="#04ff00"/><stop offset="0.3" stop-color="#04cc2a"/><stop offset="0.33" stop-color="#049757"/><stop offset="0.37" stop-color="#03687d"/><stop offset="0.41" stop-color="#03439c"/><stop offset="0.44" stop-color="#0326b5"/><stop offset="0.48" stop-color="#0311c6"/><stop offset="0.51" stop-color="#0304d1"/><stop offset="0.54" stop-color="#0300d4"/><stop offset="0.6" stop-color="#3005b5"/><stop offset="0.68" stop-color="#6e0c8a"/><stop offset="0.76" stop-color="#a21266"/><stop offset="0.83" stop-color="#ca174a"/><stop offset="0.9" stop-color="#e71a36"/><stop offset="0.96" stop-color="#f91c29"/><stop offset="1" stop-color="#ff1d25"/></linearGradient><linearGradient id="Sky" y1="453.73" x2="806.04" y2="453.73" gradientUnits="userSpaceOnUse"><stop offset="0" stop-color="#cce0f4"/><stop offset="0.06" stop-color="#c3dcf2"/><stop offset="0.17" stop-color="#a9d2ee"/><stop offset="0.31" stop-color="#80c2e7"/><stop offset="0.46" stop-color="#47acde"/><stop offset="0.57" stop-color="#1e9cd7"/><stop offset="0.87" stop-color="#0075be"/><stop offset="0.99" stop-color="#005b97"/></linearGradient></defs><title>Layer 1</title><g id="Layer_2" data-name="Layer 2"><g id="Layer_1-2" data-name="Layer 1"><path class="cls-1" d="M403,852.44C374.23,839,299.76,803.2,226.23,760.36,55,660.57,50,617.13,50,612.5V192.7L392.32,53.75,755.94,193.11c-.19,75.5-.79,335.78.06,419.69,0,4.55-4.51,47.33-176.23,147.4C506.14,803.12,431.72,839,403,852.44Z"/><path class="cls-2" d="M392.63,86,725.89,213.72c-.22,92.84-.66,315.77.08,396.21-2.17,4.44-12.46,21.66-52.48,52.77-30.59,23.77-71.54,50.36-121.74,79C492.67,775.49,434.68,804.1,403,819.25c-31.77-15.14-89.87-43.74-149-77.53-50.22-28.69-91.17-55.31-121.7-79.13C92,631.16,82,613.9,80,609.66V212.9L392.63,86M392,21.5,20,172.5v440c0,100,383,273,383,273s384-174,383-273,0-440,0-440L392,21.5Z"/><path class="cls-3" d="M392,21.5l394,151s-1,341,0,440-383,273-383,273-383-173-383-273v-440l372-151M391.79,0l-7.31,3-372,151L0,159V612.5c0,29.39,21.9,62.14,67,100.13,32.65,27.54,77.9,58.2,134.49,91.15,95.53,55.63,192.36,99.51,193.33,100l8.24,3.72,8.24-3.73c1-.44,98-44.57,193.7-100.32,56.65-33,101.92-63.7,134.52-91.19,20.06-16.91,35.7-33,46.51-47.75,13.64-18.66,20.19-35.72,20-52.16-1-97.74,0-436.33,0-439.74l0-13.8-12.88-4.94-394-151L391.79,0Z"/></g></g></svg>